<svg width="128" height="14" viewBox="0 0 128 14" fill="none" xmlns="http://www.w3.org/2000/svg">
<path d="M10.6981 1.426V0.309999H15.1801V1.426C14.7841 1.426 14.5141 1.642 14.5141 1.966V11.326C14.5141 11.65 14.7841 11.866 15.1801 11.866V13H11.4001V11.866C11.8141 11.866 12.0841 11.65 12.0841 11.326V4.108L8.28613 13.27H8.23214C7.92613 13.27 7.63813 13.09 7.51213 12.784L3.93013 4.108V11.326C3.93013 11.65 4.20013 11.866 4.59613 11.866V13H0.816135V11.866C1.23013 11.866 1.50013 11.65 1.50013 11.326V1.966C1.50013 1.642 1.23013 1.426 0.816135 1.426V0.309999H5.31613V1.426C4.81213 1.426 4.50613 1.642 4.63213 1.966L7.99813 10.084L11.3641 1.966C11.5081 1.642 11.1841 1.426 10.6981 1.426ZM22.4326 5.566V4.45L24.8626 4H25.5466V11.326C25.5466 11.65 25.8166 11.866 26.2126 11.866V13H23.1166C23.3866 12.1 23.6206 11.092 23.7286 10.21C23.2966 12.082 21.8746 13.27 19.9666 13.27C17.5726 13.27 16.0246 11.362 16.0246 8.824V6.106C16.0246 5.782 15.7546 5.566 15.3406 5.566V4.45L17.7706 4H18.4546V8.824C18.4546 10.822 19.3726 12.136 20.7766 12.136C22.1806 12.136 23.1166 10.84 23.1166 8.914V6.106C23.1166 5.782 22.8466 5.566 22.4326 5.566ZM28.3197 13.27H27.2937L26.9877 10.642H27.9777C29.0037 11.65 30.2277 12.136 31.1457 12.136C32.1537 12.136 32.9277 11.56 32.9277 10.678C32.9277 8.554 26.9337 10.138 26.9337 6.736C26.9337 4.9 28.7517 3.73 30.9117 3.73C31.8837 3.73 32.9457 3.964 33.6117 4.36C33.8637 4.45 34.0077 4.198 34.0077 3.73H35.0517L35.2857 5.854L35.3577 6.34H34.3677C33.4857 5.404 32.2797 4.846 31.3077 4.846C30.1917 4.846 29.4177 5.44 29.4177 6.34C29.4177 8.464 35.3937 6.88 35.3937 10.228C35.3937 12.046 33.7737 13.27 31.5957 13.27C30.4977 13.27 29.4177 13.072 28.7157 12.64C28.6797 12.622 28.6617 12.604 28.6257 12.604C28.4637 12.604 28.3197 12.856 28.3197 13.27ZM38.5804 7.87H43.1164C43.0264 6.034 42.1444 4.846 40.8484 4.846C39.5344 4.846 38.6524 6.034 38.5804 7.87ZM44.9524 10.696L45.3844 13.234H44.2684C44.1964 12.874 43.9444 12.694 43.6024 12.802C43.5664 12.802 43.5484 12.82 43.5304 12.82C42.8284 13.108 41.9644 13.27 41.1004 13.27C38.0584 13.27 36.1144 11.362 36.1144 8.482C36.1144 5.638 38.0224 3.73 40.8844 3.73C43.7284 3.73 45.6364 5.602 45.6544 8.41C45.6544 8.59 45.6544 8.842 45.6184 9.004H38.5984C38.7244 10.84 39.8044 12.046 41.3704 12.046C42.3964 12.046 43.3864 11.506 43.9624 10.696H44.9524ZM53.086 5.566V4.45L55.516 4H56.2V11.326C56.2 11.65 56.47 11.866 56.866 11.866V13H53.77C54.04 12.1 54.274 11.092 54.382 10.21C53.95 12.082 52.528 13.27 50.62 13.27C48.226 13.27 46.678 11.362 46.678 8.824V6.106C46.678 5.782 46.408 5.566 45.994 5.566V4.45L48.424 4H49.108V8.824C49.108 10.822 50.026 12.136 51.43 12.136C52.834 12.136 53.77 10.84 53.77 8.914V6.106C53.77 5.782 53.5 5.566 53.086 5.566ZM72.1851 5.656V11.326C72.1851 11.65 72.4552 11.866 72.8512 11.866V13H69.0711V11.866C69.4851 11.866 69.7551 11.65 69.7551 11.326V5.116C67.5951 5.116 66.1731 7.042 66.1731 9.958V13H64.1031V9.958C64.1031 7.042 62.6811 5.116 60.5211 5.116V11.326C60.5211 11.65 60.7911 11.866 61.1871 11.866V13H57.4071V11.866C57.8211 11.866 58.0911 11.65 58.0911 11.326V5.656C58.0911 5.332 57.8211 5.116 57.4071 5.116V4H60.5031C62.8251 4 64.5351 5.206 65.1291 7.258C65.7411 5.206 67.4331 4 69.7731 4H72.8512V5.116C72.4552 5.116 72.1851 5.332 72.1851 5.656ZM76.1771 8.482C76.1771 5.638 78.1931 3.73 81.2171 3.73C84.2411 3.73 86.2571 5.638 86.2571 8.482C86.2571 11.362 84.2411 13.27 81.2171 13.27C78.1931 13.27 76.1771 11.362 76.1771 8.482ZM78.6071 8.482C78.6071 10.678 79.6511 12.136 81.2171 12.136C82.7831 12.136 83.8271 10.678 83.8271 8.482C83.8271 6.304 82.7831 4.846 81.2171 4.846C79.6511 4.846 78.6071 6.304 78.6071 8.482ZM91.4432 11.866V13H87.6632V11.866C88.0592 11.866 88.3292 11.65 88.3292 11.326V5.116H86.4392L86.6192 4H88.3292V3.73C88.3292 1.516 89.5172 0.0399995 91.5512 0.0399995C92.5412 0.0399995 93.9092 0.436 94.8272 1.03L95.0252 2.74H94.8452C93.8192 2.02 92.6852 1.606 91.8932 1.606C90.7232 1.606 89.9492 2.452 89.9492 3.73V4H94.5752L94.3952 5.116H90.7592V11.326C90.7592 11.65 91.0292 11.866 91.4432 11.866ZM102.808 7.258H106.534L104.662 2.722L102.808 7.258ZM107.002 8.374H102.34L101.134 11.326C101.026 11.65 101.188 11.866 101.548 11.866V13H97.6785V11.866C98.0925 11.866 98.5605 11.668 98.7405 11.326L103.582 0.309999H104.824C105.562 0.309999 106.228 0.741999 106.534 1.426L110.89 11.326C111.052 11.668 111.538 11.866 111.952 11.866V13H107.812V11.866C108.154 11.866 108.334 11.65 108.226 11.326L107.002 8.374ZM112.175 5.566V4.45L114.605 4H115.289C114.875 5.26 114.605 6.736 114.569 7.816C114.659 5.368 116.117 3.73 118.205 3.73L118.511 5.71L118.385 5.746C116.477 5.548 115.289 6.502 115.289 8.158V11.326C115.289 11.65 115.559 11.866 115.955 11.866V13H112.175V11.866C112.589 11.866 112.859 11.65 112.859 11.326V6.106C112.859 5.782 112.589 5.566 112.175 5.566ZM120.461 5.116H118.697L118.877 4C120.209 4 120.911 3.604 120.911 2.56V1.66L122.261 1.3H122.891V4H126.707L126.527 5.116H122.891V9.58C122.891 10.948 123.449 11.866 124.673 11.866C125.393 11.866 126.383 11.524 126.977 11.002H127.157L127.355 12.46C126.689 12.946 125.231 13.27 124.097 13.27C121.721 13.27 120.461 11.794 120.461 9.58V5.116Z" fill="black"/>
</svg>
