<svg width="64" height="52" viewBox="0 0 64 52" fill="none" xmlns="http://www.w3.org/2000/svg">
<path d="M57.375 13C57.375 13.625 57.375 14.125 57.375 14.75C57.375 32.125 44.25 52 20.125 52C12.625 52 5.75 49.875 0 46.125C1 46.25 2 46.375 3.125 46.375C9.25 46.375 14.875 44.25 19.375 40.75C13.625 40.625 8.75 36.875 7.125 31.625C8 31.75 8.75 31.875 9.625 31.875C10.75 31.875 12 31.625 13 31.375C7 30.125 2.5 24.875 2.5 18.5V18.375C4.25 19.375 6.375 19.875 8.5 20C4.875 17.625 2.625 13.625 2.625 9.125C2.625 6.625 3.25 4.375 4.375 2.5C10.875 10.375 20.625 15.625 31.5 16.25C31.25 15.25 31.125 14.25 31.125 13.25C31.125 6 37 0.125 44.25 0.125C48 0.125 51.375 1.625 53.875 4.25C56.75 3.625 59.625 2.5 62.125 1C61.125 4.125 59.125 6.625 56.375 8.25C59 8 61.625 7.25 63.875 6.25C62.125 8.875 59.875 11.125 57.375 13Z" fill="#BDFF00"/>
</svg>
