<svg width="7272" height="457" viewBox="0 0 7272 457" fill="none" xmlns="http://www.w3.org/2000/svg">
<path d="M1374 457H0V251.272C0 161.225 110.224 117.661 171.786 183.377C213.594 228.006 285.417 224.608 322.824 176.231L329.653 167.399C373.297 110.957 458.54 111.082 502.017 167.653L510.802 179.083C549.411 229.319 620.435 240.857 672.961 205.425L717.668 175.267C773.857 137.365 846.738 134.812 905.441 168.69L921.764 178.11C987.986 216.328 1070.2 213.433 1133.57 170.653L1158.83 153.607C1197.72 127.35 1243.57 113.321 1290.5 113.321C1330.65 113.321 1363.57 145.155 1364.91 185.281L1374 457Z" fill="#46CFE1"/>
<path d="M3734 457H2360V251.272C2360 161.225 2470.22 117.661 2531.79 183.377C2573.59 228.006 2645.42 224.608 2682.82 176.231L2689.65 167.399C2733.3 110.957 2818.54 111.082 2862.02 167.653L2870.8 179.083C2909.41 229.319 2980.44 240.857 3032.96 205.425L3077.67 175.267C3133.86 137.365 3206.74 134.812 3265.44 168.69L3281.76 178.11C3347.99 216.328 3430.2 213.433 3493.57 170.653L3518.83 153.607C3557.72 127.35 3603.57 113.321 3650.5 113.321C3690.65 113.321 3723.57 145.155 3724.91 185.281L3734 457Z" fill="#46CFE1"/>
<path d="M2552 457H1178V251.272C1178 161.225 1288.22 117.661 1349.79 183.377C1391.59 228.006 1463.42 224.608 1500.82 176.231L1507.65 167.399C1551.3 110.957 1636.54 111.082 1680.02 167.653L1688.8 179.083C1727.41 229.319 1798.44 240.857 1850.96 205.425L1895.67 175.267C1951.86 137.365 2024.74 134.812 2083.44 168.69L2099.76 178.11C2165.99 216.328 2248.2 213.433 2311.57 170.653L2336.83 153.607C2375.72 127.35 2421.57 113.321 2468.5 113.321C2508.65 113.321 2541.57 145.155 2542.91 185.281L2552 457Z" fill="#46CFE1"/>
<path d="M4912 457H3538V251.272C3538 161.225 3648.22 117.661 3709.79 183.377C3751.59 228.006 3823.42 224.608 3860.82 176.231L3867.65 167.399C3911.3 110.957 3996.54 111.082 4040.02 167.653L4048.8 179.083C4087.41 229.319 4158.44 240.857 4210.96 205.425L4255.67 175.267C4311.86 137.365 4384.74 134.812 4443.44 168.69L4459.76 178.11C4525.99 216.328 4608.2 213.433 4671.57 170.653L4696.83 153.607C4735.72 127.35 4781.57 113.321 4828.5 113.321C4868.65 113.321 4901.57 145.155 4902.91 185.281L4912 457Z" fill="#46CFE1"/>
<path d="M6094 457H4720V251.272C4720 161.225 4830.22 117.661 4891.79 183.377C4933.59 228.006 5005.42 224.608 5042.82 176.231L5049.65 167.399C5093.3 110.957 5178.54 111.082 5222.02 167.653L5230.8 179.083C5269.41 229.319 5340.44 240.857 5392.96 205.425L5437.67 175.267C5493.86 137.365 5566.74 134.812 5625.44 168.69L5641.76 178.11C5707.99 216.328 5790.2 213.433 5853.57 170.653L5878.83 153.607C5917.72 127.35 5963.57 113.321 6010.5 113.321C6050.65 113.321 6083.57 145.155 6084.91 185.281L6094 457Z" fill="#46CFE1"/>
<path d="M7272 457H5898V251.272C5898 161.225 6008.22 117.661 6069.79 183.377C6111.59 228.006 6183.42 224.608 6220.82 176.231L6227.65 167.399C6271.3 110.957 6356.54 111.082 6400.02 167.653L6408.8 179.083C6447.41 229.319 6518.44 240.857 6570.96 205.425L6615.67 175.267C6671.86 137.365 6744.74 134.812 6803.44 168.69L6819.76 178.11C6885.99 216.328 6968.2 213.433 7031.57 170.653L7056.83 153.607C7095.72 127.35 7141.57 113.321 7188.5 113.321C7228.65 113.321 7261.57 145.155 7262.91 185.281L7272 457Z" fill="#46CFE1"/>
</svg>
