<?xml version="1.0" encoding="UTF-8"?>
<svg id="Layer_2" data-name="Layer 2" xmlns="http://www.w3.org/2000/svg" viewBox="0 0 28 37.99">
  <defs>
    <style>
      .cls-1 {
        fill: #4285f4;
      }

      .cls-2 {
        fill: #f4b400;
      }

      .cls-3 {
        fill: #34a853;
      }

      .cls-4 {
        fill: #ea4335;
      }
    </style>
  </defs>
  <g id="Layer_1-2" data-name="Layer 1">
    <path class="cls-1" d="M14,22.85c-1.43,0-2.63-.52-3.6-1.55-.97-1.03-1.45-2.28-1.45-3.75V5c0-1.39,.49-2.57,1.47-3.54,.98-.97,2.17-1.46,3.58-1.46s2.59,.49,3.58,1.46c.98,.97,1.48,2.15,1.48,3.54v12.55c0,1.47-.48,2.72-1.45,3.75-.97,1.03-2.17,1.55-3.6,1.55Z"/>
    <path class="cls-2" d="M3.6,26.75c-2.4-2.6-3.6-5.67-3.6-9.2H3c0,3.03,1.07,5.58,3.21,7.65"/>
    <path class="cls-4" d="M15.5,31.19c3.53-.37,6.5-1.85,8.9-4.45,2.4-2.6,3.6-5.67,3.6-9.2h-3c0,3.03-1.08,5.58-3.22,7.65-2.15,2.07-4.75,3.1-7.79,3.1s-5.63-1.03-7.77-3.1l-2.61,1.55c2.4,2.6,5.37,4.08,8.9,4.45h0s3,0,3,0h0Z"/>
    <rect class="cls-3" x="12.5" y="31.2" width="3" height="6.79"/>
  </g>
</svg>